<svg width="14" height="14" viewBox="0 0 14 14" fill="none" xmlns="http://www.w3.org/2000/svg">
<path d="M10.5003 3.50033H9.33366C9.33366 2.21116 8.28949 1.16699 7.00033 1.16699C5.71116 1.16699 4.66699 2.21116 4.66699 3.50033H3.50033C2.21116 3.50033 1.16699 4.54449 1.16699 5.83366V10.5003C1.16699 11.7895 2.21116 12.8337 3.50033 12.8337H10.5003C11.7895 12.8337 12.8337 11.7895 12.8337 10.5003V5.83366C12.8337 4.54449 11.7895 3.50033 10.5003 3.50033ZM4.66699 11.667H3.50033C2.85866 11.667 2.33366 11.142 2.33366 10.5003V5.83366C2.33366 5.19199 2.85866 4.66699 3.50033 4.66699H4.66699V11.667ZM8.16699 11.667H5.83366V4.66699H8.16699V11.667ZM5.83366 3.50033C5.83366 2.85866 6.35866 2.33366 7.00033 2.33366C7.64199 2.33366 8.16699 2.85866 8.16699 3.50033H5.83366ZM11.667 10.5003C11.667 11.142 11.142 11.667 10.5003 11.667H9.33366V4.66699H10.5003C11.142 4.66699 11.667 5.19199 11.667 5.83366V10.5003Z" fill="white"/>
</svg>
